<svg xmlns="http://www.w3.org/2000/svg" id="Layer_1" data-name="Layer 1" viewBox="0 0 142.68 156.99"><rect x="36.15" y="124.8" width="70.44" height="2" fill="#fffbfb"/><path d="M41.45,127.8H29.73a2.06,2.06,0,0,1-2.28-1.8V95.13a2.06,2.06,0,0,1,2.28-1.8H41.45a2.06,2.06,0,0,1,2.28,1.8V126A2.06,2.06,0,0,1,41.45,127.8Zm-12-2a1,1,0,0,0,.28,0H41.45a1,1,0,0,0,.28,0V95.37a1,1,0,0,0-.28,0H29.73a1,1,0,0,0-.28,0Z" transform="translate(-8.63 -1.01)" fill="#fffbfb"/><path d="M100.08,66a1,1,0,0,1-.16-2l6.27-1a1,1,0,0,1,.32,2l-6.27,1Z" transform="translate(-8.63 -1.01)" fill="#fffbfb"/><path d="M129,61.35a1,1,0,0,1-.16-2l19-3.08a1.86,1.86,0,0,0,1.41-2.21A66.28,66.28,0,0,0,99,3.06a2.37,2.37,0,0,0-1.83.39,2.31,2.31,0,0,0-1,1.54L87.89,55.1a1,1,0,0,1-2-.32L94.24,4.66a4.38,4.38,0,0,1,5-3.59l.16,0a68.31,68.31,0,0,1,51.77,52.56,3.86,3.86,0,0,1-3,4.58l-19.09,3.1Z" transform="translate(-8.63 -1.01)" fill="#fffbfb"/><path d="M23.42,114.91a1,1,0,0,1-.78-.38c-8.47-10.68-14.09-21.31-14-38.48A68.24,68.24,0,0,1,76.56,8.33h.07A69.28,69.28,0,0,1,88,9.26a1,1,0,0,1,.65.41,1,1,0,0,1,.18.75l-11,64.74,3-.49a1,1,0,0,1,.32,2l-3.3.53a1.69,1.69,0,0,1-.55,0,1.75,1.75,0,0,1-1.45-2L86.65,11.08a72.89,72.89,0,0,0-10.09-.75A66.49,66.49,0,0,0,10.63,76.06C10.56,92.64,16,102.94,24.2,113.29a1,1,0,0,1-.16,1.4A1,1,0,0,1,23.42,114.91Z" transform="translate(-8.63 -1.01)" fill="#fffbfb"/><path d="M130,118a1,1,0,0,1-.64-.23,1,1,0,0,1-.13-1.41c9.31-11.14,13.46-23.47,13.46-40a66.28,66.28,0,0,0-.69-9.55L129.09,68.9a1,1,0,0,1-.32-2l13.91-2.25a1,1,0,0,1,1.15.83,68.07,68.07,0,0,1,.87,10.86c0,17-4.29,29.72-13.92,41.24A1,1,0,0,1,130,118Z" transform="translate(-8.63 -1.01)" fill="#fffbfb"/><path d="M100.08,73.58a1,1,0,0,1-.16-2l6.27-1a1,1,0,1,1,.32,2l-6.27,1Z" transform="translate(-8.63 -1.01)" fill="#fffbfb"/><path d="M68.84,127.81H57.12a2.28,2.28,0,0,1-2.28-2.28V76.25A2.28,2.28,0,0,1,57.11,74H68.84a2.29,2.29,0,0,1,2.28,2.24v49.29A2.28,2.28,0,0,1,68.84,127.81ZM57.11,76a.27.27,0,0,0-.27.27v49.26a.29.29,0,0,0,.28.28H68.84a.29.29,0,0,0,.28-.28V76.27a.28.28,0,0,0-.28-.27Z" transform="translate(-8.63 -1.01)" fill="#fffbfb"/><path d="M96.22,127.81H84.52a2.3,2.3,0,0,1-2.29-2.29V59a2.3,2.3,0,0,1,2.29-2.29h11.7A2.3,2.3,0,0,1,98.51,59v66.53A2.3,2.3,0,0,1,96.22,127.81ZM84.52,58.7a.29.29,0,0,0-.29.29v66.53a.29.29,0,0,0,.29.29h11.7a.29.29,0,0,0,.29-.29V59a.29.29,0,0,0-.29-.29Z" transform="translate(-8.63 -1.01)" fill="#fffbfb"/><path d="M123.61,127.81H111.9c-1.3,0-2.28-1.33-2.28-3.1V44.14c0-1.77,1-3.1,2.28-3.1h11.71a1.83,1.83,0,0,1,1.33.54,3.57,3.57,0,0,1,1,2.56v80.57C125.9,126.45,124.89,127.81,123.61,127.81Zm0-84.77H111.9a2,2,0,0,0-.28,1.1v80.57a1.46,1.46,0,0,0,.35,1.11h11.64a2,2,0,0,0,.29-1.1V44.14A1.66,1.66,0,0,0,123.57,43Zm.07,0h0Z" transform="translate(-8.63 -1.01)" fill="#fffbfb"/><path d="M150.2,127.94H9.8a1,1,0,0,1-1.1-.88.49.49,0,0,1,0-.12v-.84a1,1,0,0,1,1-1H150.2a1,1,0,0,1,1.1.88.49.49,0,0,1,0,.12v.9a1,1,0,0,1-1.05.94Z" transform="translate(-8.63 -1.01)" fill="#fffbfb"/><path d="M12.49,158V132.49H15c7.42,0,14.2,4.49,14.2,12.45C29.2,153.39,23.14,158,15,158Zm3.35-2.06c6.54-.57,10.81-5.63,10.81-12.06,0-6.06-5.06-10-10.81-10.59Z" transform="translate(-8.63 -1.01)" fill="#fffbfb"/><path d="M30.61,158V132.49H34v14H46.48v-14h3.39V158H46.52V147.19H34V158Z" transform="translate(-8.63 -1.01)" fill="#fffbfb"/><path d="M51.81,158l8.76-25.51h3.57L73.21,158H71.07l-3.8-10.77H59L55.31,158Zm7.46-11.5H67l-3.88-11.08Z" transform="translate(-8.63 -1.01)" fill="#fffbfb"/><path d="M74.57,158V132.49h3.36L89,153.35V132.49h2V158H87.67L76.55,136.91V158Z" transform="translate(-8.63 -1.01)" fill="#fffbfb"/><path d="M92.39,158l8.76-25.51h3.57L113.79,158h-2.14l-3.8-10.77H99.59L95.89,158Zm7.46-11.5h7.73l-3.88-11.08Z" transform="translate(-8.63 -1.01)" fill="#fffbfb"/><path d="M115.54,158l8.75-25.51h3.58L136.93,158H134.8L131,147.23h-8.26L119,158ZM123,146.5h7.73l-3.89-11.08Z" transform="translate(-8.63 -1.01)" fill="#fffbfb"/><path d="M138.41,158V146l-5.48-13.48h3.51l4.49,10.4,4.57-10.4h2l-5.71,13.4V158Z" transform="translate(-8.63 -1.01)" fill="#fffbfb"/></svg>