<?xml version="1.0" encoding="UTF-8"?>
<svg version="1.1" xmlns="http://www.w3.org/2000/svg" width="273" height="157">
<path d="M0 0 C4.24846075 0.47205119 6.26819288 2.88877522 9 6 C9 6.66 9 7.32 9 8 C9.85658203 8.4021875 9.85658203 8.4021875 10.73046875 8.8125 C13.0841648 10.04403804 15.13582895 11.4781594 17.3125 13 C23.98222846 17.33216463 31.21772651 20.23897949 38.5871582 23.18359375 C49.36158214 27.62627975 60.20116342 35.00707217 65.3515625 45.84375 C69.8128093 57.78320186 70.9820993 71.69681584 67 84 C65.3046875 86.41796875 65.3046875 86.41796875 63 88 C60.0546875 87.734375 60.0546875 87.734375 56.875 86.75 C52.99728326 85.47422918 52.99728326 85.47422918 49 85 C58.66235079 89.67465783 69.14227285 90.60621187 79.65625 88.45703125 C88.6207105 85.33670942 95.03173265 79.11131612 99.3125 70.8125 C102.82530465 63.53491738 102.95995712 56.44897976 100.4375 48.8125 C99.15199137 44.85756198 98.39241545 42.01896138 100 38 C102.5625 36.625 102.5625 36.625 105 36 C111.86688878 45.71678333 114.8683383 56.73320223 113.75 68.66796875 C111.88026477 79.43564038 107.27865117 87.76539238 99 95 C90.24218376 100.51628685 81.25382288 103.26508437 71 104 C70.34773438 104.05414063 69.69546875 104.10828125 69.0234375 104.1640625 C49.39615308 104.99765373 30.67792221 97.2477447 15.8125 84.875 C10.2418509 79.67513896 6.63487937 73.6430554 3 67 C2.443125 66.030625 1.88625 65.06125 1.3125 64.0625 C-8.35358963 46.27689508 -9.74069432 26.27045081 -4.16796875 6.96875 C-3.07748277 4.19694618 -1.92516916 2.25062756 0 0 Z " fill="#65E5BE" transform="translate(40,30)"/>
<path d="M0 0 C1.8671875 0.19140625 1.8671875 0.19140625 4 1 C12.4403053 16.19806607 11.51680479 35.84900106 7 52 C0.70133232 70.41149015 -10.41736546 86.89276179 -28 96 C-45.33075776 103.84601641 -63.98293566 106.96613271 -82.6171875 101.94921875 C-85.11967055 100.95232796 -86.93477804 99.71461451 -89 98 C-87.89764302 95.13387186 -86.27296881 92.95936811 -84.25 90.6875 C-83.78078125 90.15511719 -83.3115625 89.62273437 -82.828125 89.07421875 C-80.05437258 87.44434286 -78.10131358 88.36062967 -75 89 C-72.32046856 89.11614904 -69.67840779 89.1849827 -67 89.1875 C-66.31421875 89.19974609 -65.6284375 89.21199219 -64.921875 89.22460938 C-60.56065105 89.23709379 -57.05116712 88.601477 -53 87 C-54.27875 87.185625 -55.5575 87.37125 -56.875 87.5625 C-60.75 88.125 -60.75 88.125 -63 87 C-67.83371451 73.49664159 -67.81422947 58.13182668 -62 45 C-60.30679672 41.96870295 -58.38294598 39.51772799 -56 37 C-55.40960938 36.34644531 -54.81921875 35.69289062 -54.2109375 35.01953125 C-47.8914645 28.71225801 -40.27106536 25.56282847 -32.23730469 22 C-19.90758913 16.48903155 -8.41686987 10.97605328 0 0 Z " fill="#0FA578" transform="translate(230,30)"/>
<path d="M0 0 C1.32 0.33 2.64 0.66 4 1 C12.4403053 16.19806607 11.51680479 35.84900106 7 52 C0.70133232 70.41149015 -10.41736546 86.89276179 -28 96 C-45.33075776 103.84601641 -63.98293566 106.96613271 -82.6171875 101.94921875 C-85.11967055 100.95232796 -86.93477804 99.71461451 -89 98 C-87.89764302 95.13387186 -86.27296881 92.95936811 -84.25 90.6875 C-83.78078125 90.15511719 -83.3115625 89.62273437 -82.828125 89.07421875 C-80.05437258 87.44434286 -78.10131358 88.36062967 -75 89 C-72.32046856 89.11614904 -69.67840779 89.1849827 -67 89.1875 C-66.31421875 89.19974609 -65.6284375 89.21199219 -64.921875 89.22460938 C-60.56065105 89.23709379 -57.05116712 88.601477 -53 87 C-54.27875 87.185625 -55.5575 87.37125 -56.875 87.5625 C-60.75 88.125 -60.75 88.125 -63 87 C-67.83371451 73.49664159 -67.81422947 58.13182668 -62 45 C-56.76582029 35.62938648 -47.21947842 27.37574829 -37 24 C-36.01 24.33 -35.02 24.66 -34 25 C-35.00160156 25.49628906 -36.00320312 25.99257813 -37.03515625 26.50390625 C-48.50967841 32.31466653 -57.56553591 38.49838157 -62.12109375 51.1015625 C-63.21061908 55.93421264 -63.29230359 60.4395808 -63.25 65.375 C-63.25773437 66.26960938 -63.26546875 67.16421875 -63.2734375 68.0859375 C-63.25621262 74.01129531 -62.47297777 79.2600628 -61 85 C-50.52048834 86.21854787 -40.00680627 80.31361068 -32 74 C-23.61021904 67.16193402 -15.08536826 59.65994733 -12 49 C-8.66940318 49.57424083 -7.22854819 50.49288329 -5 53 C-4.278125 53.721875 -3.55625 54.44375 -2.8125 55.1875 C-2.214375 55.785625 -1.61625 56.38375 -1 57 C0.32 54.69 1.64 52.38 3 50 C3.66 50 4.32 50 5 50 C4.979375 48.845 4.95875 47.69 4.9375 46.5 C4.92769755 43.68179516 5.11893517 41.24674389 5.5625 38.4375 C7.02454864 27.78543136 4.82275247 16.49409914 3 6 C2.071875 6.165 1.14375 6.33 0.1875 6.5 C-3 7 -3 7 -6 7 C-4.02 4.69 -2.04 2.38 0 0 Z " fill="#10A478" transform="translate(230,30)"/>
<path d="M0 0 C0.99 0 1.98 0 3 0 C7.76904183 12.05034676 9.61911889 26.30474668 5.04296875 38.765625 C2.3764448 44.47817818 -0.24528057 49.81712316 -5.375 53.625 C-8.00421449 55.96813416 -8.01217375 57.15107941 -8.3046875 60.78125 C-8.31110405 62.95053734 -8.25149475 65.09827139 -8.13037109 67.26416016 C-7.91721441 71.08374652 -7.81754185 73.75988905 -10 77 C-10.66 77 -11.32 77 -12 77 C-12.47179687 75.48019531 -12.47179687 75.48019531 -12.953125 73.9296875 C-13.3849244 72.57796765 -13.81724388 71.22641386 -14.25 69.875 C-14.45496094 69.20984375 -14.65992188 68.5446875 -14.87109375 67.859375 C-16.33345017 63.33936424 -18.19967293 59.84147431 -21 56 C-25.41748043 57.50275019 -27.27115659 60.91742747 -29.625 64.6875 C-30.01945312 65.28755859 -30.41390625 65.88761719 -30.8203125 66.50585938 C-35.31781535 73.57879038 -36.8892365 80.679287 -36 89 C-35.30922169 91.39495116 -34.47882367 93.69979909 -33.62109375 96.0390625 C-32.74258285 98.81272584 -32.84407781 100.32692994 -34 103 C-35.55926618 105.13696152 -37.21663663 107.03372756 -39 109 C-40.65 108.67 -42.3 108.34 -44 108 C-46.59086374 101.48421538 -47.55066782 95.68414823 -47.5 88.6875 C-47.49427979 87.76541748 -47.48855957 86.84333496 -47.48266602 85.89331055 C-47.0229796 68.29366677 -35.31648172 56.00341669 -24.45751953 43.17822266 C-13.09133225 29.74238152 -4.95676403 17.01504576 0 0 Z " fill="#12A378" transform="translate(167,4)"/>
<path d="M0 0 C0.99 0.33 1.98 0.66 3 1 C4.04390153 3.43876995 4.91886597 5.80225254 5.75 8.3125 C10.04900671 20.35985606 16.3000986 29.84040052 24.64477539 39.48242188 C30.1422956 45.94457536 30.1422956 45.94457536 30 50 C28.7421875 51.66796875 28.7421875 51.66796875 26.875 53.1875 C20.51103547 59.01902128 17.81057917 67.01203816 15 75 C14.01 75 13.02 75 12 75 C10.69602527 72.39205054 10.96515829 70.0998308 10.96386719 67.23681641 C10.92238517 58.38492955 10.92238517 58.38492955 6.25 51.125 C5.53199219 50.46242187 4.81398438 49.79984375 4.07421875 49.1171875 C-3.58026092 41.30414046 -4.25432867 30.41614831 -4.33007812 20.10791016 C-4.24209657 12.86262928 -2.67434459 6.7574957 0 0 Z " fill="#6BE2BE" transform="translate(103,4)"/>
<path d="M0 0 C0 5.66480471 -3.66497773 10.58599993 -7 15 C-8.64142963 16.0409066 -10.30712215 17.04504326 -12 18 C-13.78344178 20.06954847 -13.78344178 20.06954847 -15 22 C-14.67 22.33 -14.34 22.66 -14 23 C-13.13375 22.7525 -13.13375 22.7525 -12.25 22.5 C-9.54966515 21.89992559 -7.65838203 22.33540449 -5 23 C-4.67 23.99 -4.34 24.98 -4 26 C-4.66 26.99 -5.32 27.98 -6 29 C-7.32 28.34 -8.64 27.68 -10 27 C-21.30146065 41.82985118 -21.30146065 41.82985118 -23 60 C-22.30410541 62.3919 -21.47835841 64.70106798 -20.62109375 67.0390625 C-19.74258285 69.81272584 -19.84407781 71.32692994 -21 74 C-22.55926618 76.13696152 -24.21663663 78.03372756 -26 80 C-27.65 79.67 -29.3 79.34 -31 79 C-33.59086374 72.48421538 -34.55066782 66.68414823 -34.5 59.6875 C-34.49427979 58.76541748 -34.48855957 57.84333496 -34.48266602 56.89331055 C-34.05905682 40.67492619 -24.34407341 29.6422184 -14.38623047 17.67626953 C-11.5457692 14.24150252 -8.74530894 10.77396259 -5.9375 7.3125 C-4.80082725 5.91272306 -3.66411226 4.51298042 -2.52734375 3.11328125 C-1.68486887 2.07554272 -0.84241001 1.03779119 0 0 Z " fill="#BFE2D8" transform="translate(154,33)"/>
<path d="M0 0 C3.84146293 1.6440499 5.28916286 3.49659222 7.046875 7.33984375 C11.5130789 19.80494561 12.63791699 32.38613395 7.25390625 44.6640625 C5.23512311 48.42491085 2.73630262 51.73467887 0 55 C0 51.58294079 0.44584765 51.20907019 2.4375 48.625 C6.03691693 43.19537107 5.89363069 37.34347887 6 31 C4.515 30.505 4.515 30.505 3 30 C3 31.32 3 32.64 3 34 C2.01 34.495 2.01 34.495 1 35 C0.34227572 38.02934491 0.34227572 38.02934491 0 41 C-0.9075 41.226875 -1.815 41.45375 -2.75 41.6875 C-6.53488095 43.21600961 -7.61116058 44.76350788 -10 48 C-15.78719345 53.96804324 -24.70570641 56.19325646 -32.8125 56.5 C-45.23292466 55.99668867 -55.73621991 51.7683751 -66 45 C-66.93972656 44.42378906 -66.93972656 44.42378906 -67.8984375 43.8359375 C-73.5803975 40.28831781 -77.82548913 35.18711525 -82.125 30.125 C-82.97320312 29.13757813 -83.82140625 28.15015625 -84.6953125 27.1328125 C-87.19876125 23.72981945 -88.63501003 20.98200521 -90 17 C-89.505 15.515 -89.505 15.515 -89 14 C-88.39671875 14.80824219 -87.7934375 15.61648437 -87.171875 16.44921875 C-86.3646269 17.52867842 -85.55733278 18.60810367 -84.75 19.6875 C-83.96109375 20.74324219 -83.1721875 21.79898438 -82.359375 22.88671875 C-78.24575498 28.52553089 -78.24575498 28.52553089 -73 33 C-73 33.66 -73 34.32 -73 35 C-72.19949219 35.37511719 -72.19949219 35.37511719 -71.3828125 35.7578125 C-68.43066767 37.29679948 -65.68088993 39.08328715 -62.875 40.875 C-57.47270679 44.27226299 -52.03815709 46.92821698 -46 49 C-49.93670488 50.31223496 -52.12488144 49.24296256 -56 48 C-54.58521865 48.64995297 -53.16808513 49.29478722 -51.75 49.9375 C-50.96109375 50.29714844 -50.1721875 50.65679687 -49.359375 51.02734375 C-41.45976052 54.2839729 -29.4430928 54.66623601 -21.3125 51.75 C-12.00196977 46.83122931 -5.94978194 40.82381663 -2 31 C-0.14172976 24.76064231 -0.53372598 18.9544049 -2.5625 12.8125 C-3.86470729 8.84416213 -4.42627187 6.07506249 -3 2 C-2.01 1.34 -1.02 0.68 0 0 Z " fill="#C0F0E2" transform="translate(143,66)"/>
<path d="M0 0 C4.39938699 2.21358629 6.51009349 4.52246796 8.10546875 9.30859375 C8.66341863 14.51612595 8.0926588 17.97235012 5.10546875 22.30859375 C-0.03734312 26.14049279 -3.52746503 27.1171101 -9.89453125 26.30859375 C-14.25397278 24.08774618 -17.06283589 21.88783216 -18.89453125 17.30859375 C-19.60052913 12.60194122 -19.34769551 9.24978105 -17.26953125 4.93359375 C-12.57607203 -0.25391381 -6.84326021 -2.49743723 0 0 Z " fill="#6AE3BE" transform="translate(141.89453125,8.69140625)"/>
<path d="M0 0 C1.32 0 2.64 0 4 0 C4.10207293 9.9885649 2.99231795 17.52545323 -4 25 C-11.37439988 31.23987682 -17.81446111 32.75226343 -27.359375 32.24609375 C-28.23078125 32.16488281 -29.1021875 32.08367187 -30 32 C-30.33 32.99 -30.66 33.98 -31 35 C-33.58396679 35.08112454 -36.16537568 35.14054748 -38.75 35.1875 C-39.47960937 35.21263672 -40.20921875 35.23777344 -40.9609375 35.26367188 C-44.2676931 35.308764 -46.58932057 35.22638385 -49.515625 33.61328125 C-51 32 -51 32 -51 30 C-52.65 29.67 -54.3 29.34 -56 29 C-55.67 28.34 -55.34 27.68 -55 27 C-54.11328613 27.0314209 -53.22657227 27.0628418 -52.31298828 27.09521484 C-48.97664363 27.19837384 -45.64202753 27.2731141 -42.3046875 27.32958984 C-40.86919168 27.35949601 -39.43387432 27.40023863 -37.99902344 27.45263672 C-28.88076429 27.77692627 -21.12255844 27.53069334 -14 21 C-12.52957903 18.67005311 -11.85373294 16.661638 -11 14 C-9.625 12.0625 -9.625 12.0625 -8 11 C-5.3125 10.8125 -5.3125 10.8125 -3 11 C-3 9.02 -3 7.04 -3 5 C-2.01 4.67 -1.02 4.34 0 4 C0 2.68 0 1.36 0 0 Z " fill="#67E3BE" transform="translate(146,96)"/>
<path d="M0 0 C2.46307515 0.97824261 4.91920767 1.9657569 7.359375 3 C20.36645158 8.44086863 31.94639112 9.86718714 45.50390625 5.16796875 C47.9346291 4.03058826 49.18896475 2.92112858 51 1 C51.66 1 52.32 1 53 1 C52.63885788 3.63383452 52.20160461 4.80171823 50.28173828 6.68994141 C42.35103438 11.90580874 34.97355284 11.70726227 25.875 11.375 C24.42713934 11.34483624 22.97921753 11.31747181 21.53125 11.29296875 C18.01954118 11.22753892 14.51017373 11.12438377 11 11 C12.32 11.66 13.64 12.32 15 13 C15 13.66 15 14.32 15 15 C16.485 15.495 16.485 15.495 18 16 C18.33 16.33 18.66 16.66 19 17 C21.69654854 17.07319621 24.36691458 17.09242537 27.0625 17.0625 C27.82111328 17.05798828 28.57972656 17.05347656 29.36132812 17.04882812 C31.24091871 17.0370068 33.12046899 17.01907078 35 17 C35.33 16.34 35.66 15.68 36 15 C38.14185659 14.84509521 40.29022828 14.77773656 42.4375 14.75 C48.94167418 14.41781541 52.85874701 12.95248973 58.109375 9.1796875 C58.73328125 8.79039063 59.3571875 8.40109375 60 8 C60.99 8.495 60.99 8.495 62 9 C53.54011077 16.64542784 42.36025094 20.67418018 31 21 C30.03513672 21.07541016 30.03513672 21.07541016 29.05078125 21.15234375 C13.35518473 21.89975311 -3.16502824 16.80831395 -16 8 C-13.13822943 6.56911472 -11.06624227 7.40008303 -8 8 C-8 8.66 -8 9.32 -8 10 C-5.36 10 -2.72 10 0 10 C-0.33 9.01 -0.66 8.02 -1 7 C-0.70630173 5.65737935 -0.3721042 4.32303717 0 3 C0 2.01 0 1.02 0 0 Z " fill="#6DE2BF" transform="translate(80,113)"/>
<path d="M0 0 C-1.00160156 0.49628906 -2.00320312 0.99257813 -3.03515625 1.50390625 C-14.50967841 7.31466653 -23.56553591 13.49838157 -28.12109375 26.1015625 C-29.21061908 30.93421264 -29.29230359 35.4395808 -29.25 40.375 C-29.25773437 41.26960938 -29.26546875 42.16421875 -29.2734375 43.0859375 C-29.25621262 49.01129531 -28.47297777 54.2600628 -27 60 C-16.52048834 61.21854787 -6.00680627 55.31361068 2 49 C10.44416863 42.1176055 17.52209056 34.44813739 23 25 C23.495 25.99 23.495 25.99 24 27 C18.13968791 42.32437932 3.44588729 55.1034698 -11 62 C-21.79625514 66.45902211 -31.80674287 68.37503533 -43.4375 66.1875 C-47.1595255 65.60382859 -47.1595255 65.60382859 -50 68.3125 C-52.19900359 70.70907385 -52.19900359 70.70907385 -52 73 C-32.69290184 79.9610626 -13.80300189 77.30334686 4.4765625 68.81640625 C11.15731877 65.37233567 20.49301877 60.52094368 23 53 C25.0625 52.3125 25.0625 52.3125 27 52 C22.21317421 62.74058921 10.5427167 69.3176569 0.08056641 73.52050781 C-15.71684398 79.53397875 -34.79823601 82.45414533 -51 76 C-53.3203125 74.39453125 -53.3203125 74.39453125 -55 73 C-53.89764302 70.13387186 -52.27296881 67.95936811 -50.25 65.6875 C-49.78078125 65.15511719 -49.3115625 64.62273437 -48.828125 64.07421875 C-46.05437258 62.44434286 -44.10131358 63.36062967 -41 64 C-38.32046856 64.11614904 -35.67840779 64.1849827 -33 64.1875 C-32.31421875 64.19974609 -31.6284375 64.21199219 -30.921875 64.22460938 C-26.56065105 64.23709379 -23.05116712 63.601477 -19 62 C-20.27875 62.185625 -21.5575 62.37125 -22.875 62.5625 C-26.75 63.125 -26.75 63.125 -29 62 C-33.83371451 48.49664159 -33.81422947 33.13182668 -28 20 C-23.53660335 12.00929901 -10.07003237 -3.35667746 0 0 Z " fill="#E8F6F3" transform="translate(196,55)"/>
<path d="M0 0 C4.24846075 0.47205119 6.26819288 2.88877522 9 6 C9 6.66 9 7.32 9 8 C9.85658203 8.4021875 9.85658203 8.4021875 10.73046875 8.8125 C13.0841648 10.04403804 15.13582895 11.4781594 17.3125 13 C23.98222846 17.33216463 31.21772651 20.23897949 38.5871582 23.18359375 C49.36158214 27.62627975 60.20116342 35.00707217 65.3515625 45.84375 C69.8128093 57.78320186 70.9820993 71.69681584 67 84 C65.125 86.35546875 65.125 86.35546875 63 88 C59.75 87.75 59.75 87.75 57 87 C57 86.67 57 86.34 57 86 C57.94875 85.938125 58.8975 85.87625 59.875 85.8125 C63.13461685 85.35447144 63.13461685 85.35447144 64.3125 82.8125 C67.23952677 70.83829959 68.16935784 56.74104788 62.52734375 45.50390625 C54.76691631 32.78156868 42.02659282 27.26198026 28.80078125 21.64453125 C18.86878292 17.3978653 9.13744635 12.20616953 3 3 C2.01 2.67 1.02 2.34 0 2 C-1.04033588 5.32213923 -2.03053235 8.6565189 -3 12 C-3.31904297 13.04220703 -3.31904297 13.04220703 -3.64453125 14.10546875 C-7.90828928 29.96419467 -4.50865967 47.66528609 3 62 C3.43054687 62.86882812 3.86109375 63.73765625 4.3046875 64.6328125 C7.81182987 71.43856446 12.10334607 77.14280842 17 83 C18.00904695 84.32649992 19.01227398 85.65754885 20 87 C8.31239535 81.93192365 1.63615227 66.46834933 -2.875 55.25 C-8.7066488 38.85462375 -9.44853587 20.3909273 -3 4 C-1.36328125 1.59375 -1.36328125 1.59375 0 0 Z " fill="#EEFAF7" transform="translate(40,30)"/>
<path d="M0 0 C2.0625 0.4375 2.0625 0.4375 4 1 C3.80664062 1.556875 3.61328125 2.11375 3.4140625 2.6875 C2.58487602 5.11759108 1.78671419 7.55583942 1 10 C0.66355469 11.0209375 0.66355469 11.0209375 0.3203125 12.0625 C-1.79888362 19.26196079 -0.70196103 25.21212589 1.9375 32.125 C2.765625 34.625 2.765625 34.625 3 37 C1.48291731 39.90947365 -0.49118384 41.91277554 -3 44 C-6 43 -6 43 -6.94921875 41.2421875 C-10.4744914 29.93893234 -10.45946189 17.06995834 -6 6 C-4.4707084 3.82531928 -3.13976829 2.63298106 -1 1 C-0.67 0.67 -0.34 0.34 0 0 Z " fill="#35A282" transform="translate(130,68)"/>
<path d="M0 0 C2 1 2 1 3.1015625 3.640625 C5.59561195 12.96620122 4.83536205 22.61587808 0 31 C-6.38367476 40.57551214 -12.72158871 45.33023114 -24 48 C-38.22008996 49.90108155 -51.32312201 44.70023223 -63 37 C-63.93972656 36.42378906 -63.93972656 36.42378906 -64.8984375 35.8359375 C-70.5803975 32.28831781 -74.82548913 27.18711525 -79.125 22.125 C-79.97320312 21.13757813 -80.82140625 20.15015625 -81.6953125 19.1328125 C-84.19876125 15.72981945 -85.63501003 12.98200521 -87 9 C-86.67 8.01 -86.34 7.02 -86 6 C-85.39671875 6.80824219 -84.7934375 7.61648437 -84.171875 8.44921875 C-83.3646269 9.52867842 -82.55733278 10.60810367 -81.75 11.6875 C-80.96109375 12.74324219 -80.1721875 13.79898438 -79.359375 14.88671875 C-75.24575498 20.52553089 -75.24575498 20.52553089 -70 25 C-70 25.66 -70 26.32 -70 27 C-69.46632813 27.25007813 -68.93265625 27.50015625 -68.3828125 27.7578125 C-65.43066767 29.29679948 -62.68088993 31.08328715 -59.875 32.875 C-54.47270679 36.27226299 -49.03815709 38.92821698 -43 41 C-46.93670488 42.31223496 -49.12488144 41.24296256 -53 40 C-51.58521865 40.64995297 -50.16808513 41.29478722 -48.75 41.9375 C-47.96109375 42.29714844 -47.1721875 42.65679687 -46.359375 43.02734375 C-38.45976052 46.2839729 -26.4430928 46.66623601 -18.3125 43.75 C-9.00196977 38.83122931 -2.94978194 32.82381663 1 23 C3.30352701 15.31652502 1.78624232 7.63937565 0 0 Z " fill="#EEFBF8" transform="translate(140,74)"/>
<path d="M0 0 C0.99 0.33 1.98 0.66 3 1 C4.04390153 3.43876995 4.91886597 5.80225254 5.75 8.3125 C10.04900671 20.35985606 16.3000986 29.84040052 24.64477539 39.48242188 C30.1422956 45.94457536 30.1422956 45.94457536 30 50 C28.7421875 51.66796875 28.7421875 51.66796875 26.875 53.1875 C20.51103547 59.01902128 17.81057917 67.01203816 15 75 C14.01 75 13.02 75 12 75 C10.69602527 72.39205054 10.96515829 70.0998308 10.96386719 67.23681641 C10.92238517 58.38492955 10.92238517 58.38492955 6.25 51.125 C5.53199219 50.46242187 4.81398438 49.79984375 4.07421875 49.1171875 C-3.58026092 41.30414046 -4.25432867 30.41614831 -4.33007812 20.10791016 C-4.24209657 12.86262928 -2.67434459 6.7574957 0 0 Z M1 2 C0.525625 3.216875 0.05125 4.43375 -0.4375 5.6875 C-0.70433594 6.37199219 -0.97117187 7.05648438 -1.24609375 7.76171875 C-4.71843507 18.07079427 -3.83310424 29.92633306 0 40 C2.63963926 45.03812629 5.37080079 49.59884166 9.70703125 53.328125 C12.67311297 56.78434288 12.58172401 59.48420631 12.3125 63.8125 C12.27866211 64.85180664 12.27866211 64.85180664 12.24414062 65.91210938 C12.18562661 67.60901573 12.0959548 69.30479861 12 71 C12.99 71 13.98 71 15 71 C15.18433594 70.32195312 15.36867188 69.64390625 15.55859375 68.9453125 C17.78950526 61.78656534 20.84090232 57.45014374 26.26953125 52.2890625 C28.24395345 50.15052943 28.24395345 50.15052943 28.01953125 47.53515625 C26.76105154 44.40583314 25.09108126 42.35535934 22.875 39.8125 C13.23902982 28.38982854 5.69053639 16.63265305 2 2 C1.67 2 1.34 2 1 2 Z " fill="#EFFAF7" transform="translate(103,4)"/>
<path d="M0 0 C0.99 0 1.98 0 3 0 C7.92527008 12.44510207 9.30709163 26.18858662 4.94921875 39.0546875 C3.87072736 41.26492911 2.53403611 43.08352911 1 45 C1.52268466 42.23723823 2.10869587 39.6739124 3 37 C3.0806622 35.51876453 3.10761193 34.03417796 3.09765625 32.55078125 C3.09443359 31.70322266 3.09121094 30.85566406 3.08789062 29.98242188 C3.07951172 29.10134766 3.07113281 28.22027344 3.0625 27.3125 C3.05798828 26.41982422 3.05347656 25.52714844 3.04882812 24.60742188 C3.03704983 22.40488013 3.02060164 20.20247401 3 18 C1.68 17.67 0.36 17.34 -1 17 C-1.33 17.99 -1.66 18.98 -2 20 C-3.32 20 -4.64 20 -6 20 C-6.2475 20.7425 -6.495 21.485 -6.75 22.25 C-8.09147301 25.20124062 -9.60905526 26.84814974 -12 29 C-10.46810734 24.93781696 -8.5665982 21.16123052 -6.5625 17.3125 C-3.6859002 11.69596304 -1.48514886 6.13861527 0 0 Z " fill="#C4E5DC" transform="translate(167,4)"/>
<path d="M0 0 C3.85103301 0.53675903 5.31797587 2.11600923 7.75 5.0625 C8.36359375 5.79597656 8.9771875 6.52945313 9.609375 7.28515625 C10.06828125 7.85105469 10.5271875 8.41695312 11 9 C10.38125 9.28875 9.7625 9.5775 9.125 9.875 C6.86674235 10.93720042 6.86674235 10.93720042 5 13 C3.4840625 13.495 3.4840625 13.495 1.9375 14 C-1.12150806 14.65752556 -1.12150806 14.65752556 -2 17 C-2.24518296 21.4326607 -2.18520848 25.87382822 -2.1875 30.3125 C-2.19974609 31.54935547 -2.21199219 32.78621094 -2.22460938 34.06054688 C-2.22654297 35.25357422 -2.22847656 36.44660156 -2.23046875 37.67578125 C-2.23457764 38.76802002 -2.23868652 39.86025879 -2.24291992 40.9855957 C-1.99509642 44.06084876 -1.22265193 46.19321906 0 49 C0.125 51.8125 0.125 51.8125 0 54 C-6.65920635 44.01119048 -7.69585102 28.40167537 -5.62207031 16.90478516 C-4.35284626 11.07420259 -2.88960813 5.25856614 0 0 Z " fill="#83DFC4" transform="translate(40,32)"/>
<path d="M0 0 C1.32 0.33 2.64 0.66 4 1 C12.47207429 16.25527102 11.49432731 35.72424679 7 52 C6.07545449 54.37690339 5.05772095 56.67716183 4 59 C3 56 3 56 4 53 C6.35104879 36.83251379 5.80301685 22.13775721 3 6 C1.6078125 6.2475 1.6078125 6.2475 0.1875 6.5 C-3 7 -3 7 -6 7 C-4.02 4.69 -2.04 2.38 0 0 Z " fill="#A5D7C8" transform="translate(230,30)"/>
<path d="M0 0 C0 0.66 0 1.32 0 2 C-1.72856459 2.4813341 -3.45788071 2.95996971 -5.1875 3.4375 C-6.63189453 3.83775391 -6.63189453 3.83775391 -8.10546875 4.24609375 C-12.5846544 5.41273725 -16.19121242 6.18326997 -20.8125 5.5625 C-21.60269531 5.46066406 -22.39289063 5.35882813 -23.20703125 5.25390625 C-23.79871094 5.17011719 -24.39039063 5.08632812 -25 5 C-24.67 6.65 -24.34 8.3 -24 10 C-19.26120232 11.14850697 -14.53708638 11.32901557 -9.6875 11.5625 C-8.85154297 11.60568359 -8.01558594 11.64886719 -7.15429688 11.69335938 C-5.10303065 11.79885307 -3.0515352 11.89987315 -1 12 C-1 12.33 -1 12.66 -1 13 C-12.35124612 15.06386293 -27.08975533 15.60682978 -37 9 C-35.54290754 5.60011759 -34.04062507 3.16044413 -31 1 C-27.5 1.25 -27.5 1.25 -25.40625 1.62890625 C-16.34318201 3.02661966 -8.69220438 0 0 0 Z " fill="#15A177" transform="translate(180,119)"/>
<path d="M0 0 C0.99 0.33 1.98 0.66 3 1 C3.18175781 2.24716797 3.18175781 2.24716797 3.3671875 3.51953125 C3.53476563 4.60621094 3.70234375 5.69289063 3.875 6.8125 C4.03742188 7.89144531 4.19984375 8.97039062 4.3671875 10.08203125 C4.85132338 13.17321793 4.85132338 13.17321793 7 16 C7.375 18.4375 7.375 18.4375 7 21 C5 23.3125 5 23.3125 3 25 C0 24 0 24 -1.171875 21.91015625 C-2.19192935 18.32553128 -2.26479649 15.16251556 -2.25 11.4375 C-2.25515625 10.13683594 -2.2603125 8.83617188 -2.265625 7.49609375 C-2.02520223 4.33170587 -1.68411971 2.62642478 0 0 Z " fill="#15A177" transform="translate(124,87)"/>
<path d="M0 0 C0.66 0.99 1.32 1.98 2 3 C1.34 3.66 0.68 4.32 0 5 C-3.6208273 15.81515083 -4.35967063 30.13047738 -1 41 C-0.34773437 40.7834375 0.30453125 40.566875 0.9765625 40.34375 C5.77521132 38.81497692 9.89921898 37.59730676 15 38 C15 37.34 15 36.68 15 36 C16.75 34.3125 16.75 34.3125 19 33 C21.25 33.3125 21.25 33.3125 23 34 C17.03840973 39.18591867 8.76406279 43.32901649 0.6875 43.3125 C-0.199375 43.209375 -1.08625 43.10625 -2 43 C-5.59936663 36.76109785 -5.21040876 29.68030271 -5.25 22.6875 C-5.270625 21.78837891 -5.29125 20.88925781 -5.3125 19.96289062 C-5.3554733 12.53388137 -4.16222654 6.24333981 0 0 Z " fill="#329F80" transform="translate(171,73)"/>
<path d="M0 0 C4.39938699 2.21358629 6.51009349 4.52246796 8.10546875 9.30859375 C8.66341863 14.51612595 8.0926588 17.97235012 5.10546875 22.30859375 C-0.03734312 26.14049279 -3.52746503 27.1171101 -9.89453125 26.30859375 C-14.25397278 24.08774618 -17.06283589 21.88783216 -18.89453125 17.30859375 C-19.60052913 12.60194122 -19.34769551 9.24978105 -17.26953125 4.93359375 C-12.57607203 -0.25391381 -6.84326021 -2.49743723 0 0 Z M-16.640625 7.15234375 C-18.3858818 10.15353302 -18.63233115 11.91471422 -17.89453125 15.30859375 C-16.24827004 19.50655983 -14.72547242 21.94322616 -10.89453125 24.30859375 C-6.829115 25.11362667 -2.65496704 25.26113416 1.0546875 23.25390625 C3.98552459 20.8553035 5.90856475 18.89789036 6.37890625 15.1015625 C6.63283665 9.25605632 6.63283665 9.25605632 3.79296875 4.24609375 C-0.17288493 1.38698993 -3.73680877 0.72639062 -8.53125 0.765625 C-12.4290982 1.66116368 -14.28661236 4.05007187 -16.640625 7.15234375 Z " fill="#F0FBF8" transform="translate(141.89453125,8.69140625)"/>
<path d="M0 0 C2.31 0.66 4.62 1.32 7 2 C6.67 2.99 6.34 3.98 6 5 C7.32 5.33 8.64 5.66 10 6 C10 6.66 10 7.32 10 8 C7.12474331 8.05425013 4.25052354 8.09379277 1.375 8.125 C0.56675781 8.14175781 -0.24148437 8.15851563 -1.07421875 8.17578125 C-5.80093815 8.21420986 -9.55387702 7.82737094 -14 6 C-14 4.35 -14 2.7 -14 1 C-13.07316406 1.01160156 -12.14632812 1.02320312 -11.19140625 1.03515625 C-9.39509766 1.04869141 -9.39509766 1.04869141 -7.5625 1.0625 C-5.77005859 1.07990234 -5.77005859 1.07990234 -3.94140625 1.09765625 C-1.11126659 1.33901792 -1.11126659 1.33901792 0 0 Z " fill="#11A477" transform="translate(169,123)"/>
<path d="M0 0 C3.52582996 1.37469182 6.95050404 2.89078127 10.375 4.5 C14.53879765 6.39820187 18.53790878 7.92579285 23 9 C23.95712891 9.25040039 23.95712891 9.25040039 24.93359375 9.50585938 C30.79539385 10.95248711 36.34911702 11.35045052 42.375 11.3125 C43.29893555 11.30758545 44.22287109 11.3026709 45.17480469 11.29760742 C55.00554888 11.12867941 62.59070342 9.18325667 71.05078125 4.140625 C73.2836714 2.83400391 75.5635558 1.86454472 78 1 C70.79853208 9.40171257 60.06197971 12.86313227 49.2890625 13.8359375 C48.15597656 13.91714844 48.15597656 13.91714844 47 14 C46.34773438 14.05414063 45.69546875 14.10828125 45.0234375 14.1640625 C29.44119564 14.82585656 12.67138345 9.94450596 0 1 C0 0.67 0 0.34 0 0 Z " fill="#EBF9F5" transform="translate(64,120)"/>
<path d="M0 0 C1.9375 0.375 1.9375 0.375 4 1 C4.33 1.66 4.66 2.32 5 3 C4.01 3.495 4.01 3.495 3 4 C3 4.99 3 5.98 3 7 C2.34 7 1.68 7 1 7 C0.67 8.98 0.34 10.96 0 13 C-0.66 13 -1.32 13 -2 13 C-2.268125 13.721875 -2.53625 14.44375 -2.8125 15.1875 C-3.99901362 17.99766383 -5.27485639 20.48416557 -7 23 C-7.66 23 -8.32 23 -9 23 C-9.33 23.66 -9.66 24.32 -10 25 C-10.66 24.67 -11.32 24.34 -12 24 C-12.061875 24.598125 -12.12375 25.19625 -12.1875 25.8125 C-13.32077754 28.86363184 -15.24599601 29.3879001 -18 31 C-18.68268138 32.32520503 -19.3507041 33.65812182 -20 35 C-22.125 36.25 -22.125 36.25 -24 37 C-24 36.01 -24 35.02 -24 34 C-24.66 33.67 -25.32 33.34 -26 33 C-25.31035156 32.53851563 -24.62070313 32.07703125 -23.91015625 31.6015625 C-13.83027319 24.60510046 -5.27002059 16.26337735 0 5 C0 4.01 0 3.02 0 2 C0 1.34 0 0.68 0 0 Z " fill="#30A584" transform="translate(218,79)"/>
<path d="M0 0 C1.32 0 2.64 0 4 0 C3.85915204 1.79206547 3.71216299 3.58364917 3.5625 5.375 C3.48128906 6.37273437 3.40007812 7.37046875 3.31640625 8.3984375 C3 11 3 11 2 13 C1.01 13 0.02 13 -1 13 C-0.67 14.32 -0.34 15.64 0 17 C-1.98 18.65 -3.96 20.3 -6 22 C-6.66 21.67 -7.32 21.34 -8 21 C-7.7215625 20.1028125 -7.7215625 20.1028125 -7.4375 19.1875 C-6.77906313 16.83591238 -6.77906313 16.83591238 -8 14 C-8 13.01 -8 12.02 -8 11 C-6.35 11 -4.7 11 -3 11 C-3 9.02 -3 7.04 -3 5 C-2.01 4.67 -1.02 4.34 0 4 C0 2.68 0 1.36 0 0 Z " fill="#65E2BD" transform="translate(146,96)"/>
<path d="M0 0 C2.75208174 2.65572877 5.14318601 5.38018089 7.4375 8.4375 C9.46127901 11.08799768 11.4612659 13.57320719 13.875 15.875 C16 18 16 18 17 21 C19.00016466 22.20882096 19.00016466 22.20882096 21 23 C20.34 23.33 19.68 23.66 19 24 C19.99 25.65 20.98 27.3 22 29 C15.96896326 26.54291096 11.9897462 20.96957886 7.875 16.125 C6.60269531 14.64386719 6.60269531 14.64386719 5.3046875 13.1328125 C2.29165949 9.03713714 0 5.21733949 0 0 Z " fill="#E4F9F3" transform="translate(53,80)"/>
<path d="M0 0 C2.0362816 3.05442241 2.25488704 3.69129629 2.265625 7.1328125 C2.26820312 7.93976563 2.27078125 8.74671875 2.2734375 9.578125 C2.26570313 10.41859375 2.25796875 11.2590625 2.25 12.125 C2.25773437 12.94226563 2.26546875 13.75953125 2.2734375 14.6015625 C2.25178583 21.44348977 1.86721557 28.19917664 -2 34 C-6.20417542 34.4671306 -9.19788277 33.78923164 -13 32 C-10.61772756 30.71723792 -8.49957984 29.85988235 -5.875 29.125 C-2.96573093 28.30145955 -2.96573093 28.30145955 -1.84619141 26.28222656 C-0.83324082 23.55024095 -0.67886729 21.27117519 -0.5859375 18.359375 C-0.52792969 16.75449219 -0.52792969 16.75449219 -0.46875 15.1171875 C-0.4378125 14.00601563 -0.406875 12.89484375 -0.375 11.75 C-0.33632812 10.62335938 -0.29765625 9.49671875 -0.2578125 8.3359375 C-0.16362664 5.55745452 -0.07800414 2.77897666 0 0 Z " fill="#87DEC6" transform="translate(105,82)"/>
<path d="M0 0 C10.67594756 3.09288481 19.37200126 10.71146885 24.875 20.25 C26 23 26 23 26 26 C25.34 26 24.68 26 24 26 C23.5875 25.113125 23.175 24.22625 22.75 23.3125 C20.61838448 19.27765633 18.4733921 16.06411652 14.75 13.375 C14.1725 12.92125 13.595 12.4675 13 12 C13 11.01 13 10.02 13 9 C12.34 9 11.68 9 11 9 C11 8.34 11 7.68 11 7 C9.35 7 7.7 7 6 7 C6 6.34 6 5.68 6 5 C5.195625 4.731875 4.39125 4.46375 3.5625 4.1875 C2.716875 3.795625 1.87125 3.40375 1 3 C0.67 2.01 0.34 1.02 0 0 Z " fill="#82DDC3" transform="translate(79,56)"/>
<path d="M0 0 C0 3.75803653 -0.90605184 4.28380887 -3.4375 6.9375 C-7.05658087 10.73205146 -7.98109729 12.86129331 -8.02734375 18.09375 C-7.96744607 20.36465346 -7.90494582 22.63548978 -7.83984375 24.90625 C-7.99522676 27.90779502 -8.42880336 29.48608537 -10 32 C-10.66 32 -11.32 32 -12 32 C-12.81436587 29.58394775 -13.62655397 27.16720002 -14.4375 24.75 C-14.66759766 24.06808594 -14.89769531 23.38617188 -15.13476562 22.68359375 C-16.20803714 19.47933387 -17.26015608 16.29953381 -18 13 C-17.34 13 -16.68 13 -16 13 C-15.32586789 14.91405367 -14.6609668 16.83136026 -14 18.75 C-13.62875 19.81734375 -13.2575 20.8846875 -12.875 21.984375 C-12 25 -12 25 -12 29 C-11.34 29 -10.68 29 -10 29 C-9.97290556 26.91673869 -9.95356127 24.83337559 -9.9375 22.75 C-9.92589844 21.58984375 -9.91429687 20.4296875 -9.90234375 19.234375 C-9.83796641 16.12846647 -9.83796641 16.12846647 -10.73828125 13.828125 C-10.82464844 13.22484375 -10.91101563 12.6215625 -11 12 C-9.453125 10 -9.453125 10 -7.25 8 C-4.51200178 5.4786779 -2.14870899 3.04627097 0 0 Z " fill="#EBF7F4" transform="translate(167,49)"/>
<path d="M0 0 C1.98 0 3.96 0 6 0 C6.33 2.31 6.66 4.62 7 7 C7.99 7.33 8.98 7.66 10 8 C8.35 11.96 6.7 15.92 5 20 C4.34 19.67 3.68 19.34 3 19 C3.03480469 17.96359375 3.06960937 16.9271875 3.10546875 15.859375 C3.13361482 14.48959958 3.16091411 13.11980659 3.1875 11.75 C3.21263672 11.06808594 3.23777344 10.38617188 3.26367188 9.68359375 C3.31137459 6.40800711 3.21085076 4.34651444 1.48828125 1.515625 C0.99714844 1.01546875 0.50601563 0.5153125 0 0 Z " fill="#86DDC3" transform="translate(112,56)"/>
<path d="M0 0 C2.0625 0.4375 2.0625 0.4375 4 1 C4.625 2.8125 4.625 2.8125 5 5 C4.01 6.485 4.01 6.485 3 8 C2.72487581 10.32266082 2.72487581 10.32266082 2.8046875 12.88671875 C2.81113281 13.82451172 2.81757813 14.76230469 2.82421875 15.72851562 C2.84935547 17.19321289 2.84935547 17.19321289 2.875 18.6875 C2.88853516 20.16959961 2.88853516 20.16959961 2.90234375 21.68164062 C2.9259157 24.12133765 2.95881978 26.56054697 3 29 C2.34 29 1.68 29 1 29 C1.03480469 27.92621094 1.06960937 26.85242188 1.10546875 25.74609375 C1.13362918 24.30991161 1.16092691 22.87371238 1.1875 21.4375 C1.21263672 20.73302734 1.23777344 20.02855469 1.26367188 19.30273438 C1.3359118 14.07737956 0.20440543 10.71871401 -2 6 C-1.61904762 1.61904762 -1.61904762 1.61904762 0 0 Z " fill="#91DFC8" transform="translate(142,68)"/>
<path d="M0 0 C0.33 0.66 0.66 1.32 1 2 C0.43410156 2.48210938 -0.13179687 2.96421875 -0.71484375 3.4609375 C-1.44832031 4.09257813 -2.18179688 4.72421875 -2.9375 5.375 C-3.66839844 6.00148438 -4.39929688 6.62796875 -5.15234375 7.2734375 C-7.08380906 8.87747714 -7.08380906 8.87747714 -8 11 C-8.66 11 -9.32 11 -10 11 C-10 12.98 -10 14.96 -10 17 C-10.99 16.34 -11.98 15.68 -13 15 C-12.34 13.35 -11.68 11.7 -11 10 C-11.90363281 10.44472656 -12.80726563 10.88945313 -13.73828125 11.34765625 C-15.50751953 12.19650391 -15.50751953 12.19650391 -17.3125 13.0625 C-18.48425781 13.63097656 -19.65601563 14.19945312 -20.86328125 14.78515625 C-24 16 -24 16 -27 15 C-26.46632812 14.75878418 -25.93265625 14.51756836 -25.3828125 14.26904297 C-22.91719642 13.14767822 -20.45869178 12.01146198 -18 10.875 C-17.16082031 10.49601562 -16.32164062 10.11703125 -15.45703125 9.7265625 C-9.75516962 7.07453384 -4.87184939 3.97538828 0 0 Z " fill="#99D4C3" transform="translate(223,38)"/>
<path d="M0 0 C0.99 0.66 1.98 1.32 3 2 C3.43359375 4.8984375 3.43359375 4.8984375 3.4375 8.375 C3.45683594 9.51710938 3.47617188 10.65921875 3.49609375 11.8359375 C3 15 3 15 -1 19 C-1.33 13.06 -1.66 7.12 -2 1 C-1.34 0.67 -0.68 0.34 0 0 Z " fill="#71DFBE" transform="translate(146,73)"/>
<path d="M0 0 C0 5.66480471 -3.66497773 10.58599993 -7 15 C-7.763125 15.45375 -8.52625 15.9075 -9.3125 16.375 C-13.35053285 18.81660126 -16.02093198 22.38562641 -19 26 C-19 21.60519054 -16.23430604 19.49222166 -13.4375 16.375 C-12.33565243 15.12118467 -11.2353892 13.86597525 -10.13671875 12.609375 C-9.59966309 11.99642578 -9.06260742 11.38347656 -8.50927734 10.75195312 C-5.5231137 7.28564606 -2.74734176 3.65667319 0 0 Z " fill="#C0E1D8" transform="translate(154,33)"/>
<path d="M0 0 C1.32 0 2.64 0 4 0 C4 0.66 4 1.32 4 2 C-0.88364414 6.00536032 -6.23580452 9.42128097 -12 12 C-12.66 10.68 -13.32 9.36 -14 8 C-13.15695313 7.59007813 -12.31390625 7.18015625 -11.4453125 6.7578125 C-10.34960938 6.21898438 -9.25390625 5.68015625 -8.125 5.125 C-6.48917969 4.32449219 -6.48917969 4.32449219 -4.8203125 3.5078125 C-1.96117453 2.15464063 -1.96117453 2.15464063 0 0 Z " fill="#EDF9F6" transform="translate(198,104)"/>
<path d="M0 0 C4.39036595 1.38153724 8.51432538 3.06124292 12.6875 5 C13.80511719 5.515625 14.92273438 6.03125 16.07421875 6.5625 C19 8 19 8 22 10 C20.52031676 9.85950482 19.04125484 9.71245174 17.5625 9.5625 C16.73878906 9.48128906 15.91507813 9.40007813 15.06640625 9.31640625 C13 9 13 9 12 8 C9.72016124 7.46907865 7.42805916 7.03682029 5.12890625 6.59765625 C3 6 3 6 1 4 C0.375 1.875 0.375 1.875 0 0 Z " fill="#78DFC0" transform="translate(57,46)"/>
<path d="M0 0 C0.66 0 1.32 0 2 0 C1.9375 1.75 1.9375 1.75 1 4 C-5.7407801 8.53706353 -11.23016043 9.15639671 -19.3125 9.0625 C-20.05306641 9.05798828 -20.79363281 9.05347656 -21.55664062 9.04882812 C-23.37112899 9.03712175 -25.18557534 9.01918898 -27 9 C-27 8.67 -27 8.34 -27 8 C-25.94941406 7.90203125 -24.89882812 7.8040625 -23.81640625 7.703125 C-10.84794359 6.58625414 -10.84794359 6.58625414 0 0 Z " fill="#86DEC4" transform="translate(131,114)"/>
<path d="M0 0 C-3.19426332 7.03051093 -8.99814594 12.3156261 -15 17 C-15 15.02 -15 13.04 -15 11 C-13.68 11.33 -12.36 11.66 -11 12 C-11 10.68 -11 9.36 -11 8 C-10.071875 7.6596875 -10.071875 7.6596875 -9.125 7.3125 C-6.37739861 5.61545208 -6.06789821 3.97485929 -5 1 C-3 0 -3 0 0 0 Z " fill="#39AA8A" transform="translate(215,86)"/>
<path d="M0 0 C1.32 0.33 2.64 0.66 4 1 C5.30078125 3.36328125 5.30078125 3.36328125 6.3125 6.3125 C6.65925781 7.27800781 7.00601563 8.24351563 7.36328125 9.23828125 C8.00223885 12.00971084 7.96792149 13.37100033 7 16 C6.71125 14.865625 6.4225 13.73125 6.125 12.5625 C5.75375 11.386875 5.3825 10.21125 5 9 C4.34 8.67 3.68 8.34 3 8 C3 7.34 3 6.68 3 6 C1.6078125 6.2475 1.6078125 6.2475 0.1875 6.5 C-3 7 -3 7 -6 7 C-4.02 4.69 -2.04 2.38 0 0 Z " fill="#B4DACF" transform="translate(230,30)"/>
<path d="M0 0 C2.17330391 3.25995586 2.24921459 4.22979966 2.1875 8 C2.18105469 8.86625 2.17460937 9.7325 2.16796875 10.625 C2 13 2 13 1 16 C0.34 16 -0.32 16 -1 16 C-1.99 11.71 -2.98 7.42 -4 3 C-3.34 3 -2.68 3 -2 3 C-1.34 2.01 -0.68 1.02 0 0 Z " fill="#3DA083" transform="translate(156,62)"/>
<path d="M0 0 C16.335 0.99 16.335 0.99 33 2 C33 2.33 33 2.66 33 3 C21.56908865 5.07834752 11.2195636 3.78829391 0 1 C0 0.67 0 0.34 0 0 Z " fill="#57AB92" transform="translate(146,129)"/>
<path d="M0 0 C0 0.99 0 1.98 0 3 C0.99 4.485 0.99 4.485 2 6 C2.125 8.6875 2.125 8.6875 2 11 C1.01 11 0.02 11 -1 11 C-1.66 10.34 -2.32 9.68 -3 9 C-3.33 9.66 -3.66 10.32 -4 11 C-5.33333333 11.66666667 -6.66666667 12.33333333 -8 13 C-8.33 13.66 -8.66 14.32 -9 15 C-8.37394031 11.26972769 -6.69298393 8.85481583 -4.5 5.8125 C-3.8709375 4.93207031 -3.241875 4.05164062 -2.59375 3.14453125 C-1 1 -1 1 0 0 Z " fill="#67B9A1" transform="translate(133,59)"/>
<path d="M0 0 C5.91226217 8.86839325 5.86327659 20.52542559 4.5 30.75 C4.335 31.4925 4.17 32.235 4 33 C3.67 33 3.34 33 3 33 C2.98018066 32.31897217 2.96036133 31.63794434 2.93994141 30.9362793 C2.84473017 27.85296083 2.73503534 24.77032351 2.625 21.6875 C2.5940625 20.61564453 2.563125 19.54378906 2.53125 18.43945312 C2.49257812 17.41142578 2.45390625 16.38339844 2.4140625 15.32421875 C2.3826416 14.37635498 2.3512207 13.42849121 2.31884766 12.4519043 C2.1510949 9.7469731 2.1510949 9.7469731 0 7 C-1.04507457 3.95978307 -1.06016453 3.1804936 0 0 Z " fill="#54AC92" transform="translate(168,5)"/>
<path d="M0 0 C0 3.90969922 -1.09316311 4.5259007 -3.8125 7.25 C-10.22520183 13.44017905 -16.95114143 18.94010441 -26 20 C-23.31795453 17.90048024 -20.64083977 16.2017022 -17.625 14.625 C-13.61984551 12.43797485 -10.38112379 10.059112 -7 7 C-6.401875 6.46375 -5.80375 5.9275 -5.1875 5.375 C-3.75126612 3.88838138 -3.75126612 3.88838138 -3 1 C-2.01 0.67 -1.02 0.34 0 0 Z " fill="#E2F1ED" transform="translate(222,107)"/>
<path d="M0 0 C0 0.66 0 1.32 0 2 C-1.72856459 2.4813341 -3.45788071 2.95996971 -5.1875 3.4375 C-6.63189453 3.83775391 -6.63189453 3.83775391 -8.10546875 4.24609375 C-9.06066406 4.49488281 -10.01585937 4.74367188 -11 5 C-12.2375 5.3403125 -12.2375 5.3403125 -13.5 5.6875 C-16.61914296 6.07739287 -18.81329882 5.46587385 -21.8125 4.5625 C-22.78832031 4.27503906 -23.76414063 3.98757812 -24.76953125 3.69140625 C-25.50558594 3.46324219 -26.24164063 3.23507813 -27 3 C-23.66265633 1.97495873 -20.7271385 1.9589065 -17.25 2.0625 C-11.24101286 2.12853283 -5.83734303 0 0 0 Z " fill="#3BA183" transform="translate(180,119)"/>
<path d="M0 0 C0.5775 0.226875 1.155 0.45375 1.75 0.6875 C-4.21159027 5.87341867 -12.48593721 10.01651649 -20.5625 10 C-21.8928125 9.8453125 -21.8928125 9.8453125 -23.25 9.6875 C-23.25 9.3575 -23.25 9.0275 -23.25 8.6875 C-21.6 8.6875 -19.95 8.6875 -18.25 8.6875 C-18.25 8.0275 -18.25 7.3675 -18.25 6.6875 C-14.07262526 5.09611915 -10.71839215 4.47471942 -6.25 4.6875 C-6.25 4.0275 -6.25 3.3675 -6.25 2.6875 C-3.02697842 -0.42041367 -3.02697842 -0.42041367 0 0 Z " fill="#40A589" transform="translate(192.25,106.3125)"/>
<path d="M0 0 C6.79245283 6.60377358 6.79245283 6.60377358 9 10 C9 12.625 9 12.625 8 15 C5.9375 16.8125 5.9375 16.8125 4 18 C3.875 11.375 3.875 11.375 5 8 C4.01 7.67 3.02 7.34 2 7 C0.8125 3.4375 0.8125 3.4375 0 0 Z " fill="#83DDC3" transform="translate(122,40)"/>
<path d="M0 0 C3.96 0 7.92 0 12 0 C7.83902535 4.16097465 1.15971255 4.11784384 -4.47265625 4.1953125 C-6.33603902 4.18223613 -8.19937629 4.15870996 -10.0625 4.125 C-11.02349609 4.11597656 -11.98449219 4.10695312 -12.97460938 4.09765625 C-15.31667805 4.07435208 -17.65819792 4.04164058 -20 4 C-20 3.67 -20 3.34 -20 3 C-13.73 2.67 -7.46 2.34 -1 2 C-0.67 1.34 -0.34 0.68 0 0 Z " fill="#8AE0C7" transform="translate(116,128)"/>
<path d="M0 0 C0.598125 0.226875 1.19625 0.45375 1.8125 0.6875 C1.1525 2.6675 0.4925 4.6475 -0.1875 6.6875 C-1.1775 6.6875 -2.1675 6.6875 -3.1875 6.6875 C-3.1875 8.0075 -3.1875 9.3275 -3.1875 10.6875 C-4.5075 10.0275 -5.8275 9.3675 -7.1875 8.6875 C-4.49237805 -0.64176829 -4.49237805 -0.64176829 0 0 Z " fill="#20A17A" transform="translate(132.1875,68.3125)"/>
<path d="M0 0 C0.33 0 0.66 0 1 0 C1.39355581 18.01611047 1.39355581 18.01611047 -1 24 C-2.8125 25.5625 -2.8125 25.5625 -5 26 C-7.75 25.625 -7.75 25.625 -10 25 C-10 24.67 -10 24.34 -10 24 C-9.05125 23.938125 -8.1025 23.87625 -7.125 23.8125 C-6.09375 23.544375 -5.0625 23.27625 -4 23 C-1.49696557 18.61968974 -1.34931618 13.61339019 -0.875 8.6875 C-0.74544922 7.43356445 -0.74544922 7.43356445 -0.61328125 6.15429688 C-0.40234458 4.1035237 -0.20028354 2.05184097 0 0 Z " fill="#E9F9F5" transform="translate(107,92)"/>
<path d="M0 0 C2.46307515 0.97824261 4.91920767 1.9657569 7.359375 3 C12.86566159 5.30328328 18.13962339 6.86573356 24 8 C24 8.33 24 8.66 24 9 C18.7441862 9.18123496 14.94048683 8.97619473 10 7 C9.1440625 6.66226563 8.288125 6.32453125 7.40625 5.9765625 C4.93229781 4.99671065 2.46450257 4.00333504 0 3 C0 2.01 0 1.02 0 0 Z " fill="#88DCC5" transform="translate(80,113)"/>
<path d="M0 0 C3.47977513 0.09975747 4.4017775 0.413685 7.4375 2.4375 C6.79941406 2.57027344 6.16132813 2.70304688 5.50390625 2.83984375 C4.26447266 3.10474609 4.26447266 3.10474609 3 3.375 C2.17628906 3.54902344 1.35257813 3.72304687 0.50390625 3.90234375 C-1.53911204 4.24502994 -1.53911204 4.24502994 -2.5625 5.4375 C-4.56208364 5.47830783 -6.56295254 5.48004356 -8.5625 5.4375 C-6.22228328 1.36755787 -4.60948352 0.06756572 0 0 Z " fill="#81DDC2" transform="translate(135.5625,9.5625)"/>
<path d="M0 0 C1 3 1 3 -0.58203125 6.3203125 C-1.31498156 7.59466168 -2.05895635 8.86271875 -2.8125 10.125 C-3.18181641 10.77082031 -3.55113281 11.41664062 -3.93164062 12.08203125 C-6.72182642 16.86091321 -6.72182642 16.86091321 -9 18 C-8.33416691 14.97972618 -7.33954034 12.31430777 -6.0625 9.5 C-5.72347656 8.7471875 -5.38445312 7.994375 -5.03515625 7.21875 C-4.69355469 6.4865625 -4.35195312 5.754375 -4 5 C-3.66871094 4.2678125 -3.33742187 3.535625 -2.99609375 2.78125 C-2 1 -2 1 0 0 Z " fill="#C2E0D8" transform="translate(232,89)"/>
<path d="M0 0 C0.66 0 1.32 0 2 0 C1.745504 1.48206495 1.47088238 2.96068615 1.1875 4.4375 C1.03667969 5.26121094 0.88585937 6.08492188 0.73046875 6.93359375 C0.36888672 7.95646484 0.36888672 7.95646484 0 9 C-0.99 9.33 -1.98 9.66 -3 10 C-4.22520264 13.00847418 -4.22520264 13.00847418 -5 16 C-5.33 16 -5.66 16 -6 16 C-6.3913152 11.54063718 -5.21759262 9.02208724 -3 5.1875 C-2.443125 4.21167969 -1.88625 3.23585938 -1.3125 2.23046875 C-0.879375 1.49441406 -0.44625 0.75835937 0 0 Z " fill="#34A684" transform="translate(233,80)"/>
<path d="M0 0 C2.475 0.99 2.475 0.99 5 2 C3.35 4.64 1.7 7.28 0 10 C-0.99 9.67 -1.98 9.34 -3 9 C-3 8.01 -3 7.02 -3 6 C-3.66 6 -4.32 6 -5 6 C-5 5.34 -5 4.68 -5 4 C-3.68 4 -2.36 4 -1 4 C-0.67 2.68 -0.34 1.36 0 0 Z " fill="#2DA381" transform="translate(154,56)"/>
<path d="M0 0 C1.9375 0.375 1.9375 0.375 4 1 C4.33 1.66 4.66 2.32 5 3 C4.01 3.495 4.01 3.495 3 4 C3 4.99 3 5.98 3 7 C2.34 7 1.68 7 1 7 C0.938125 7.94875 0.87625 8.8975 0.8125 9.875 C0.544375 10.90625 0.27625 11.9375 0 13 C-2.5625 14.375 -2.5625 14.375 -5 15 C-4.57267578 14.15308594 -4.57267578 14.15308594 -4.13671875 13.2890625 C-2.99844561 10.99686985 -1.88818994 8.69724761 -0.8125 6.375 C-0.44769531 5.59898438 -0.08289063 4.82296875 0.29296875 4.0234375 C0.52628906 3.35570313 0.75960937 2.68796875 1 2 C0.67 1.34 0.34 0.68 0 0 Z " fill="#47B192" transform="translate(218,79)"/>
<path d="M0 0 C0.33 0 0.66 0 1 0 C1.99 3.63 2.98 7.26 4 11 C5.32 11 6.64 11 8 11 C8 11.99 8 12.98 8 14 C10.97 14 13.94 14 17 14 C17 14.33 17 14.66 17 15 C8.10535406 15.62176166 8.10535406 15.62176166 4 13.3125 C0.29779055 9.03182033 -0.25986165 5.58702548 0 0 Z " fill="#A1E1CE" transform="translate(124,18)"/>
<path d="M0 0 C2.29691372 2.29691372 3.56049263 4.59191051 5.125 7.4375 C5.66382812 8.40558594 6.20265625 9.37367187 6.7578125 10.37109375 C8 13 8 13 8 16 C7.01 15.34 6.02 14.68 5 14 C4.34 14 3.68 14 3 14 C2.49307308 12.4188708 1.99473557 10.83498617 1.5 9.25 C1.2215625 8.36828125 0.943125 7.4865625 0.65625 6.578125 C0 4 0 4 0 0 Z " fill="#8CE0C8" transform="translate(108,18)"/>
<path d="M0 0 C-2.22582389 0.84334329 -4.45496026 1.67478551 -6.6875 2.5 C-7.62625977 2.85771484 -7.62625977 2.85771484 -8.58398438 3.22265625 C-12.18192299 4.5412725 -15.16520253 5.29329235 -19 5 C-19 4.34 -19 3.68 -19 3 C-15.7 2.67 -12.4 2.34 -9 2 C-9 1.34 -9 0.68 -9 0 C-3.375 -1.125 -3.375 -1.125 0 0 Z " fill="#4AA68C" transform="translate(198,126)"/>
<path d="M0 0 C0.33 0.66 0.66 1.32 1 2 C1.66 2 2.32 2 3 2 C3 2.66 3 3.32 3 4 C3.66 4 4.32 4 5 4 C5 4.66 5 5.32 5 6 C7.97 6.495 7.97 6.495 11 7 C10.67 8.65 10.34 10.3 10 12 C8 12 8 12 6.34375 10.35546875 C5.7353125 9.64003906 5.126875 8.92460938 4.5 8.1875 C3.8915625 7.47980469 3.283125 6.77210937 2.65625 6.04296875 C1 4 1 4 -1 1 C-0.67 0.67 -0.34 0.34 0 0 Z " fill="#81E2C6" transform="translate(62,89)"/>
<path d="M0 0 C2.125 0.375 2.125 0.375 4 1 C4.1875 3.375 4.1875 3.375 4 6 C3.01 6.66 2.02 7.32 1 8 C0.34 7.67 -0.32 7.34 -1 7 C-1.75 4.5625 -1.75 4.5625 -2 2 C-1.34 1.34 -0.68 0.68 0 0 Z " fill="#2FA382" transform="translate(134,60)"/>
<path d="M0 0 C0.33 0.99 0.66 1.98 1 3 C-0.43359375 5.69921875 -0.43359375 5.69921875 -2.4375 8.6875 C-3.09621094 9.68136719 -3.75492188 10.67523438 -4.43359375 11.69921875 C-5.20896484 12.83810547 -5.20896484 12.83810547 -6 14 C-6.66 13.67 -7.32 13.34 -8 13 C-7.67 11.68 -7.34 10.36 -7 9 C-6.34 9 -5.68 9 -5 9 C-4.67 8.01 -4.34 7.02 -4 6 C-3.34 6 -2.68 6 -2 6 C-2.33 4.68 -2.66 3.36 -3 2 C-2.01 2 -1.02 2 0 2 C0 1.34 0 0.68 0 0 Z " fill="#87DEC4" transform="translate(148,107)"/>
<path d="M0 0 C0.33 0 0.66 0 1 0 C3.13480153 7.73865554 3.20483028 15.00023956 3 23 C2.67 23 2.34 23 2 23 C2 19.04 2 15.08 2 11 C1.34 11 0.68 11 0 11 C0 7.37 0 3.74 0 0 Z " fill="#99DECB" transform="translate(149,77)"/>
<path d="M0 0 C-0.33 1.65 -0.66 3.3 -1 5 C-4.63 5.33 -8.26 5.66 -12 6 C-10.02433812 4.02433812 -8.47662906 3.10420928 -6 1.875 C-5.29875 1.52179688 -4.5975 1.16859375 -3.875 0.8046875 C-2 0 -2 0 0 0 Z " fill="#38A486" transform="translate(192,113)"/>
<path d="M0 0 C0.66 1.32 1.32 2.64 2 4 C-0.34877419 6.50535913 -2.0911787 7.90564909 -5.55859375 8.265625 C-8.04963675 8.25149142 -10.51524028 8.17369194 -13 8 C-12.67 7.01 -12.34 6.02 -12 5 C-11.67 5.33 -11.34 5.66 -11 6 C-6.78428287 6.28743526 -3.81990452 5.79760213 0 4 C0 2.68 0 1.36 0 0 Z " fill="#7ADEC0" transform="translate(145,24)"/>
<path d="M0 0 C0.66 0.33 1.32 0.66 2 1 C-0.0957044 5.08110856 -2.01725944 6.79901179 -6 9 C-6.33 9.66 -6.66 10.32 -7 11 C-7.66 10.67 -8.32 10.34 -9 10 C-7.8758824 8.70756532 -6.75067408 7.41607925 -5.625 6.125 C-4.99851563 5.40570313 -4.37203125 4.68640625 -3.7265625 3.9453125 C-2.52573166 2.5923402 -1.2791655 1.2791655 0 0 Z " fill="#3FA387" transform="translate(181,62)"/>
<path d="M0 0 C1.61725534 3.00950123 2.67582623 5.97103608 3.625 9.25 C3.88539063 10.14203125 4.14578125 11.0340625 4.4140625 11.953125 C4.60742188 12.62859375 4.80078125 13.3040625 5 14 C4.01 14.495 4.01 14.495 3 15 C-1.77676538 5.77448747 -1.77676538 5.77448747 0 0 Z " fill="#4DA78D" transform="translate(128,91)"/>
<path d="M0 0 C2.3125 0.1875 2.3125 0.1875 5 1 C6.8125 3.5625 6.8125 3.5625 8 6 C7.01 6.33 6.02 6.66 5 7 C3.29115995 5.37660195 1.62553283 3.70680947 0 2 C0 1.34 0 0.68 0 0 Z " fill="#F3FCFA" transform="translate(72,104)"/>
<path d="M0 0 C4.95 1.98 9.9 3.96 15 6 C15 6.33 15 6.66 15 7 C8.8590522 6.72706899 4.75942013 6.02720165 0 2 C0 1.34 0 0.68 0 0 Z " fill="#89DBC3" transform="translate(64,49)"/>
<path d="M0 0 C1.65 0 3.3 0 5 0 C1.88983545 3.28788824 -1.01618925 5.83735988 -5 8 C-5 7.01 -5 6.02 -5 5 C-4.01 5 -3.02 5 -2 5 C-1.34 3.35 -0.68 1.7 0 0 Z " fill="#3FA688" transform="translate(210,114)"/>
<path d="M0 0 C2.64 0 5.28 0 8 0 C8 0.66 8 1.32 8 2 C8.66 2 9.32 2 10 2 C9.67 2.99 9.34 3.98 9 5 C5.54074837 3.7508258 2.85306797 2.32472205 0 0 Z " fill="#83DEC3" transform="translate(78,106)"/>
<path d="M0 0 C0.99 0.33 1.98 0.66 3 1 C2.67 3.64 2.34 6.28 2 9 C1.01 9 0.02 9 -1 9 C-1.125 2.25 -1.125 2.25 0 0 Z " fill="#0FA376" transform="translate(124,87)"/>
<path d="M0 0 C2 1 2 1 3.125 4 C4.27521462 8.32229088 4.18124209 12.55956873 4 17 C3.67 17 3.34 17 3 17 C2.67 13.7 2.34 10.4 2 7 C1.34 7 0.68 7 0 7 C0 4.69 0 2.38 0 0 Z " fill="#58AF95" transform="translate(234,38)"/>
<path d="M0 0 C1.98 0.66 3.96 1.32 6 2 C6 2.99 6 3.98 6 5 C7.32 5 8.64 5 10 5 C10 5.66 10 6.32 10 7 C3.47692308 5.64615385 3.47692308 5.64615385 1.0625 2.375 C0.711875 1.59125 0.36125 0.8075 0 0 Z " fill="#A6E7D4" transform="translate(58,114)"/>
<path d="M0 0 C1.89213369 2.38573379 3.02391783 4.07175348 4 7 C4.99 7.66 5.98 8.32 7 9 C5.02 9.99 5.02 9.99 3 11 C0.84694043 7.14243493 -0.39253254 4.44870215 0 0 Z " fill="#5BA993" transform="translate(122,101)"/>
<path d="M0 0 C0.66 0.99 1.32 1.98 2 3 C1.34 3.66 0.68 4.32 0 5 C-0.2165625 5.9590625 -0.2165625 5.9590625 -0.4375 6.9375 C-1.10356162 9.37972594 -2.11604329 10.36177677 -4 12 C-3.5317879 7.22423661 -2.75668002 3.95523655 0 0 Z " fill="#42A388" transform="translate(171,73)"/>
<path d="M0 0 C0.33 0 0.66 0 1 0 C1.2358396 5.77807024 0.86783046 10.51324804 -1 16 C-1.33 16 -1.66 16 -2 16 C-2.20674944 10.21101581 -1.59162079 5.57067277 0 0 Z " fill="#50AA90" transform="translate(237,64)"/>
<path d="M0 0 C0.66 0 1.32 0 2 0 C0.74875245 5.68748885 -1.04102568 8.72847508 -5 13 C-5.33 12.01 -5.66 11.02 -6 10 C-5.34 10 -4.68 10 -4 10 C-4 9.01 -4 8.02 -4 7 C-3.34 6.67 -2.68 6.34 -2 6 C-1.27306096 4.02111039 -0.60183749 2.02045442 0 0 Z " fill="#53A990" transform="translate(168,42)"/>
<path d="M0 0 C0.5775 0.2475 1.155 0.495 1.75 0.75 C0.76 0.75 -0.23 0.75 -1.25 0.75 C-1.25 1.41 -1.25 2.07 -1.25 2.75 C-2.25 3.75 -3.25 4.75 -4.25 5.75 C-4.58 6.74 -4.91 7.73 -5.25 8.75 C-6.24 8.42 -7.23 8.09 -8.25 7.75 C-6.64613593 4.0076505 -4.56199942 -0.50688882 0 0 Z " fill="#55A58E" transform="translate(151.25,120.25)"/>
<path d="M0 0 C1.65 0 3.3 0 5 0 C2.01581671 3.32851213 -0.84562769 5.3205729 -5 7 C-5.99 6.67 -6.98 6.34 -8 6 C-5.08235 4.0549 -3.37462715 3.54723683 0 3 C0 2.01 0 1.02 0 0 Z " fill="#81DEC3" transform="translate(135,121)"/>
<path d="M0 0 C0.66 0.33 1.32 0.66 2 1 C1.67 3.64 1.34 6.28 1 9 C-0.65 9 -2.3 9 -4 9 C-2.68 6.03 -1.36 3.06 0 0 Z " fill="#82DFC4" transform="translate(142,98)"/>
<path d="M0 0 C0.33 0 0.66 0 1 0 C1.02708567 1.60407328 1.04643483 3.2082785 1.0625 4.8125 C1.07410156 5.70582031 1.08570313 6.59914063 1.09765625 7.51953125 C1 10 1 10 0 13 C-0.66 13 -1.32 13 -2 13 C-2.23509196 8.18061476 -1.45184478 4.53701494 0 0 Z " fill="#62A391" transform="translate(157,65)"/>
<path d="M0 0 C0.99 0 1.98 0 3 0 C3.625 1.875 3.625 1.875 4 4 C3.34 4.66 2.68 5.32 2 6 C1.01 6 0.02 6 -1 6 C-0.67 4.02 -0.34 2.04 0 0 Z " fill="#61E6BE" transform="translate(41,36)"/>
<path d="M0 0 C1.98 0 3.96 0 6 0 C6 1.32 6 2.64 6 4 C4.35 4 2.7 4 1 4 C0.67 2.68 0.34 1.36 0 0 Z " fill="#29A17D" transform="translate(124,105)"/>
<path d="M0 0 C1.32 0 2.64 0 4 0 C2.66511872 3.59391114 1.03977277 6.75490696 -1 10 C-2.27351308 7.45297384 -1.80191925 6.5717055 -1.0625 3.875 C-0.86785156 3.15054688 -0.67320312 2.42609375 -0.47265625 1.6796875 C-0.31667969 1.12539062 -0.16070312 0.57109375 0 0 Z " fill="#41A98B" transform="translate(223,98)"/>
<path d="M0 0 C0.66 0.66 1.32 1.32 2 2 C1.625 3.875 1.625 3.875 1 6 C1 7.32 1 8.64 1 10 C-0.32 9.34 -1.64 8.68 -3 8 C-1.125 2.25 -1.125 2.25 0 0 Z " fill="#169B73" transform="translate(128,69)"/>
<path d="M0 0 C-1.75 4.875 -1.75 4.875 -4 6 C-4 5.34 -4 4.68 -4 4 C-5.65 4.33 -7.3 4.66 -9 5 C-6.45523312 2.20075644 -3.92372883 0 0 0 Z " fill="#3BA789" transform="translate(192,57)"/>
<path d="M0 0 C-0.66 1.65 -1.32 3.3 -2 5 C-4.97 5 -7.94 5 -11 5 C-3.5 0 -3.5 0 0 0 Z " fill="#4AA98E" transform="translate(212,48)"/>
<path d="M0 0 C2.40034102 3.60051153 4.32187705 6.96144535 3.625 11.375 C3.41875 11.91125 3.2125 12.4475 3 13 C2.34 11.02 1.68 9.04 1 7 C0.34 7 -0.32 7 -1 7 C-0.67 4.69 -0.34 2.38 0 0 Z " fill="#7AAFA1" transform="translate(168,5)"/>
<path d="M0 0 C0.33 0 0.66 0 1 0 C1 3.3 1 6.6 1 10 C0.01 10.495 0.01 10.495 -1 11 C-1.22174933 9.54364629 -1.42698698 8.08477044 -1.625 6.625 C-1.74101562 5.81289063 -1.85703125 5.00078125 -1.9765625 4.1640625 C-1.98429688 3.44992188 -1.99203125 2.73578125 -2 2 C-1.34 1.34 -0.68 0.68 0 0 Z " fill="#27A07B" transform="translate(170,31)"/>
<path d="M0 0 C1.88391785 3.26545761 2.49287967 6.28111761 3 10 C2.67 9.01 2.34 8.02 2 7 C0.68 7.33 -0.64 7.66 -2 8 C-1.125 2.25 -1.125 2.25 0 0 Z " fill="#A2DDCD" transform="translate(104,6)"/>
<path d="M0 0 C5.67276511 -0.29341888 8.99067246 -0.00559652 14 3 C11.60004452 3.85712696 10.48394488 4.22584094 8.125 3.125 C7.42375 2.75375 6.7225 2.3825 6 2 C4.00889599 1.61709538 2.00899487 1.27395385 0 1 C0 0.67 0 0.34 0 0 Z " fill="#8BE1C8" transform="translate(80,127)"/>
<path d="M0 0 C0.66 0 1.32 0 2 0 C1.34 3.63 0.68 7.26 0 11 C-2 8 -2 8 -1.6875 4.9375 C-1 2 -1 2 0 0 Z " fill="#4BA88D" transform="translate(129,75)"/>
<path d="M0 0 C1.98 0 3.96 0 6 0 C5.67 0.66 5.34 1.32 5 2 C1.52674819 3.1577506 -1.36067448 3.06866652 -5 3 C-5 2.67 -5 2.34 -5 2 C-3.35 2 -1.7 2 0 2 C0 1.34 0 0.68 0 0 Z " fill="#4FA68E" transform="translate(174,113)"/>
<path d="M0 0 C2.52588702 2.36292656 3.88820837 3.66462511 5 7 C4.01 8.485 4.01 8.485 3 10 C0 3.375 0 3.375 0 0 Z " fill="#CCF9EC" transform="translate(53,80)"/>
<path d="M0 0 C0 3.20395416 -0.74335022 5.09399739 -2 8 C-2.99 8 -3.98 8 -5 8 C-3.8141763 4.62496331 -2.72426311 2.35277269 0 0 Z " fill="#BDDDD4" transform="translate(133,59)"/>
<path d="M0 0 C0.33 1.32 0.66 2.64 1 4 C-0.98 4.99 -2.96 5.98 -5 7 C-3.70700306 4.11562221 -2.34058637 2.12780579 0 0 Z " fill="#42A386" transform="translate(144,48)"/>
<path d="M0 0 C0.33 0.66 0.66 1.32 1 2 C-1.25 4.5625 -1.25 4.5625 -4 7 C-5.32 6.67 -6.64 6.34 -8 6 C-5.36 4.02 -2.72 2.04 0 0 Z " fill="#D0E7E1" transform="translate(223,38)"/>
<path d="M0 0 C0.66 1.32 1.32 2.64 2 4 C0.68 4.99 -0.64 5.98 -2 7 C-2.66 6.67 -3.32 6.34 -4 6 C-2.68 4.02 -1.36 2.04 0 0 Z " fill="#40A588" transform="translate(156,32)"/>
<path d="M0 0 C0.66 0.33 1.32 0.66 2 1 C1.67 2.32 1.34 3.64 1 5 C-0.32 5.33 -1.64 5.66 -3 6 C-2.625 3.5625 -2.625 3.5625 -2 1 C-1.34 0.67 -0.68 0.34 0 0 Z " fill="#39A386" transform="translate(168,11)"/>
<path d="M0 0 C0 3 0 3 -1.875 5.1875 C-4 7 -4 7 -6 7 C-6 6.34 -6 5.68 -6 5 C-5.34 4.67 -4.68 4.34 -4 4 C-3.67 3.01 -3.34 2.02 -3 1 C-2.01 0.67 -1.02 0.34 0 0 Z " fill="#BADDD3" transform="translate(222,107)"/>
<path d="M0 0 C3.40424844 1.13474948 4.21653709 1.96811304 6 5 C5.67 5.99 5.34 6.98 5 8 C0 2.25 0 2.25 0 0 Z " fill="#85DEC4" transform="translate(50,104)"/>
<path d="M0 0 C0 2.31 0 4.62 0 7 C-0.99 5.68 -1.98 4.36 -3 3 C-3.66 3.66 -4.32 4.32 -5 5 C-5.33 4.01 -5.66 3.02 -6 2 C-3 0 -3 0 0 0 Z " fill="#209E79" transform="translate(171,15)"/>
<path d="" fill="#FFFFFF" transform="translate(0,0)"/>
<path d="" fill="#FFFFFF" transform="translate(0,0)"/>
<path d="" fill="#FFFFFF" transform="translate(0,0)"/>
<path d="" fill="#FFFFFF" transform="translate(0,0)"/>
<path d="" fill="#FFFFFF" transform="translate(0,0)"/>
<path d="" fill="#FFFFFF" transform="translate(0,0)"/>
<path d="" fill="#FFFFFF" transform="translate(0,0)"/>
<path d="" fill="#FFFFFF" transform="translate(0,0)"/>
<path d="" fill="#FFFFFF" transform="translate(0,0)"/>
<path d="" fill="#FFFFFF" transform="translate(0,0)"/>
<path d="" fill="#FFFFFF" transform="translate(0,0)"/>
<path d="" fill="#FFFFFF" transform="translate(0,0)"/>
<path d="" fill="#FFFFFF" transform="translate(0,0)"/>
<path d="" fill="#FFFFFF" transform="translate(0,0)"/>
<path d="" fill="#FFFFFF" transform="translate(0,0)"/>
<path d="" fill="#FFFFFF" transform="translate(0,0)"/>
<path d="" fill="#FFFFFF" transform="translate(0,0)"/>
<path d="" fill="#FFFFFF" transform="translate(0,0)"/>
<path d="" fill="#FFFFFF" transform="translate(0,0)"/>
<path d="" fill="#FFFFFF" transform="translate(0,0)"/>
<path d="" fill="#FFFFFF" transform="translate(0,0)"/>
<path d="" fill="#FFFFFF" transform="translate(0,0)"/>
<path d="" fill="#FFFFFF" transform="translate(0,0)"/>
<path d="" fill="#FFFFFF" transform="translate(0,0)"/>
<path d="" fill="#FFFFFF" transform="translate(0,0)"/>
<path d="" fill="#FFFFFF" transform="translate(0,0)"/>
<path d="" fill="#FFFFFF" transform="translate(0,0)"/>
<path d="" fill="#FFFFFF" transform="translate(0,0)"/>
<path d="" fill="#FFFFFF" transform="translate(0,0)"/>
<path d="" fill="#FFFFFF" transform="translate(0,0)"/>
<path d="" fill="#FFFFFF" transform="translate(0,0)"/>
<path d="" fill="#FFFFFF" transform="translate(0,0)"/>
<path d="" fill="#FFFFFF" transform="translate(0,0)"/>
<path d="" fill="#FFFFFF" transform="translate(0,0)"/>
<path d="" fill="#FFFFFF" transform="translate(0,0)"/>
<path d="" fill="#FFFFFF" transform="translate(0,0)"/>
<path d="" fill="#FFFFFF" transform="translate(0,0)"/>
<path d="" fill="#FFFFFF" transform="translate(0,0)"/>
<path d="" fill="#FFFFFF" transform="translate(0,0)"/>
</svg>
